<?xml version="1.0" standalone="no"?>
<!DOCTYPE svg PUBLIC "-//W3C//DTD SVG 20010904//EN"
 "http://www.w3.org/TR/2001/REC-SVG-20010904/DTD/svg10.dtd">
<svg version="1.0" xmlns="http://www.w3.org/2000/svg"
 width="351.000000pt" height="180.000000pt" viewBox="0 0 351.000000 180.000000"
 preserveAspectRatio="xMidYMid meet">

<g transform="translate(0.000000,180.000000) scale(0.100000,-0.100000)"
fill="#000000" stroke="none">
<path d="M1005 1599 c-22 -17 -72 -46 -111 -64 -61 -29 -102 -43 -237 -82 -13
-3 -17 -13 -15 -36 3 -28 7 -32 55 -42 72 -16 100 -38 113 -86 17 -64 9 -776
-9 -812 -19 -37 -64 -62 -133 -77 -49 -10 -59 -15 -64 -36 -4 -14 -2 -30 4
-36 13 -13 21 -13 237 -3 108 4 212 3 285 -4 128 -12 148 -6 136 43 -5 21 -14
27 -47 32 -22 4 -54 16 -72 28 -62 42 -62 42 -65 477 l-3 395 49 46 c88 82
189 116 296 98 100 -16 152 -58 186 -148 19 -49 20 -78 20 -410 0 -214 -4
-372 -10 -394 -14 -48 -48 -74 -116 -88 -52 -11 -54 -12 -54 -45 0 -21 6 -35
16 -39 10 -4 65 -1 123 5 98 11 367 7 431 -6 43 -8 61 3 58 37 -3 29 -8 33
-67 52 -41 13 -71 30 -83 46 -29 40 -38 164 -38 532 0 370 -5 340 64 393 77
59 236 84 337 53 60 -17 114 -74 135 -140 19 -63 27 -359 15 -634 -9 -209 -13
-218 -110 -249 -48 -15 -63 -25 -68 -43 -3 -14 0 -29 9 -38 12 -13 32 -13 134
-3 113 11 360 7 461 -7 34 -5 43 -3 52 13 21 40 3 62 -61 74 -76 15 -120 45
-135 92 -9 26 -13 137 -13 375 -1 186 -5 369 -11 407 -21 154 -113 271 -246
316 -182 61 -374 10 -565 -151 l-36 -30 -21 34 c-30 48 -105 115 -156 137 -63
28 -180 42 -255 30 -77 -13 -170 -55 -246 -113 -31 -23 -64 -49 -74 -56 -16
-12 -17 -6 -16 85 1 91 0 98 -19 100 -11 2 -38 -11 -60 -28z"/>
<path d="M137 134 c-4 -4 -4 -11 -1 -15 3 -5 731 -9 1625 -9 1432 0 1619 2
1619 15 0 13 -186 15 -1618 15 -890 0 -1622 -3 -1625 -6z"/>
</g>
</svg>
