<?xml version="1.0" standalone="no"?>
<!DOCTYPE svg PUBLIC "-//W3C//DTD SVG 20010904//EN"
 "http://www.w3.org/TR/2001/REC-SVG-20010904/DTD/svg10.dtd">
<svg version="1.0" xmlns="http://www.w3.org/2000/svg"
 width="391.000000pt" height="388.000000pt" viewBox="0 0 391.000000 388.000000"
 preserveAspectRatio="xMidYMid meet">

<g transform="translate(0.000000,388.000000) scale(0.100000,-0.100000)"
fill="#000000" stroke="none">
<path d="M1245 3597 c-69 -53 -186 -106 -318 -143 -56 -15 -58 -17 -55 -47 3
-28 7 -32 55 -42 72 -16 100 -38 113 -86 7 -27 10 -165 8 -412 -3 -333 -5
-375 -21 -404 -21 -39 -53 -57 -129 -73 -49 -10 -59 -15 -64 -36 -11 -42 7
-49 104 -44 128 7 366 6 453 -2 90 -9 116 2 105 45 -5 22 -14 28 -47 33 -22 4
-54 16 -72 28 -62 42 -62 42 -65 477 l-3 395 49 46 c87 82 189 116 294 98 98
-16 138 -43 180 -121 23 -43 23 -49 26 -404 2 -198 0 -380 -3 -404 -9 -61 -46
-95 -118 -111 -55 -13 -57 -14 -57 -46 0 -20 6 -34 16 -38 10 -4 65 -1 123 5
99 11 358 7 437 -6 36 -7 57 12 52 46 -2 18 -17 27 -67 43 -41 13 -71 30 -82
46 -31 43 -39 144 -39 517 l0 362 56 40 c134 96 334 101 425 10 69 -69 74
-101 71 -513 -3 -279 -6 -367 -17 -392 -16 -39 -61 -69 -116 -78 -31 -5 -40
-11 -45 -32 -12 -49 9 -56 125 -45 130 14 266 14 406 1 100 -10 111 -9 122 6
7 10 13 21 13 26 0 20 -41 46 -83 52 -62 9 -109 43 -124 89 -9 25 -13 140 -14
379 0 189 -5 372 -10 407 -21 149 -111 264 -244 311 -95 33 -222 34 -315 2
-65 -22 -181 -92 -252 -152 l-36 -30 -21 34 c-30 48 -105 115 -156 137 -63 28
-180 42 -255 30 -77 -13 -170 -55 -246 -113 -31 -23 -64 -49 -74 -56 -16 -12
-17 -6 -16 85 1 91 0 98 -19 101 -11 1 -33 -8 -50 -21z"/>
<path d="M360 2115 c0 -13 187 -15 1625 -15 1438 0 1625 2 1625 15 0 13 -187
15 -1625 15 -1438 0 -1625 -2 -1625 -15z"/>
<path d="M3154 1950 c-6 -6 -33 -19 -59 -29 -56 -21 -67 -36 -32 -45 14 -3 27
-16 31 -28 3 -13 6 -131 6 -263 0 -257 -5 -284 -49 -295 -14 -3 -26 -11 -29
-18 -3 -9 25 -12 112 -12 118 0 147 10 86 31 -22 8 -31 19 -36 45 -3 18 -5
167 -3 329 4 291 2 314 -27 285z"/>
<path d="M434 1680 c-6 -6 -33 -19 -59 -29 -54 -21 -66 -36 -36 -44 31 -8 41
-47 41 -157 0 -117 -9 -147 -50 -161 -54 -19 -32 -27 80 -27 107 0 135 9 86
27 -13 5 -26 17 -30 26 -3 9 -6 75 -6 146 l0 129 33 20 c71 44 146 10 148 -67
3 -255 5 -242 -31 -254 -54 -19 -32 -27 75 -27 58 0 105 4 105 8 0 5 -12 15
-27 22 l-28 13 -3 146 -3 146 35 17 c50 23 92 20 122 -9 24 -24 25 -27 22
-162 l-3 -138 -27 -13 c-16 -7 -28 -17 -28 -22 0 -5 50 -9 110 -9 104 1 140
11 85 25 -42 10 -46 26 -48 171 -2 157 -13 191 -69 214 -55 23 -109 18 -164
-16 l-49 -30 -26 26 c-40 42 -98 47 -163 15 -65 -32 -66 -32 -66 -1 0 26 -9
32 -26 15z"/>
<path d="M1259 1676 c-55 -19 -100 -48 -121 -76 -25 -34 -15 -60 23 -60 31 0
52 24 63 72 5 22 14 29 43 34 32 6 40 3 60 -20 30 -35 34 -123 6 -132 -135
-41 -206 -86 -219 -138 -9 -39 14 -86 50 -101 37 -15 112 -6 150 18 24 16 27
16 46 -3 29 -29 91 -27 126 3 30 27 26 55 -5 35 -10 -6 -26 -8 -35 -5 -14 6
-16 27 -16 159 0 171 -5 189 -66 214 -40 17 -58 17 -105 0z m83 -281 c-3 -56
-7 -68 -29 -85 -31 -24 -76 -26 -94 -4 -17 21 -17 78 2 100 15 19 85 53 109
54 12 0 14 -12 12 -65z"/>
<path d="M2094 1675 c-10 -8 -40 -22 -66 -30 -27 -9 -48 -20 -48 -24 0 -3 14
-12 30 -18 l30 -11 0 -265 c0 -277 -1 -280 -44 -288 -11 -2 -21 -10 -24 -16
-3 -10 24 -13 112 -13 96 0 116 3 116 15 0 8 -8 15 -18 15 -40 0 -52 31 -52
129 l0 93 33 -9 c133 -34 261 39 287 162 25 121 -37 237 -142 266 -51 13 -91
6 -140 -26 l-38 -25 0 30 c0 34 -7 37 -36 15z m216 -73 c70 -71 63 -250 -12
-303 -43 -31 -110 -30 -143 1 -24 23 -25 28 -25 149 1 83 5 131 13 142 20 26
50 38 95 39 35 0 49 -6 72 -28z"/>
<path d="M2694 1680 c-51 -11 -103 -49 -132 -94 -23 -36 -27 -51 -27 -122 0
-71 3 -85 28 -123 51 -77 146 -112 248 -90 76 16 142 81 158 158 37 174 -104
312 -275 271z m112 -39 c48 -29 69 -82 69 -176 0 -127 -43 -191 -127 -189 -76
2 -118 69 -118 188 0 82 10 119 43 155 41 44 85 51 133 22z"/>
<path d="M3430 1678 c-52 -18 -106 -78 -124 -139 -20 -65 -20 -83 -1 -145 38
-127 176 -186 287 -122 47 29 83 72 73 89 -4 5 -21 -3 -40 -20 -45 -39 -103
-49 -152 -24 -56 27 -76 63 -81 138 l-4 65 141 0 141 0 0 26 c0 93 -135 167
-240 132z m128 -40 c8 -7 18 -23 23 -37 15 -38 -6 -49 -98 -53 -69 -3 -83 -1
-83 12 0 25 38 80 63 90 26 11 74 5 95 -12z"/>
<path d="M1485 1659 c4 -5 18 -14 30 -19 35 -13 47 -37 114 -217 l61 -162 -43
-88 -42 -88 -36 3 c-43 4 -62 -15 -57 -55 3 -25 8 -28 41 -31 22 -2 46 3 54
10 16 13 73 127 223 452 66 142 78 160 107 172 56 24 38 34 -57 34 -91 0 -115
-11 -64 -30 23 -9 26 -14 20 -42 -3 -17 -28 -76 -54 -131 l-47 -100 -43 112
c-49 131 -51 148 -17 161 53 20 25 30 -86 30 -75 0 -108 -3 -104 -11z"/>
<path d="M1061 974 c-24 -13 -52 -24 -62 -24 -22 0 -37 -22 -20 -28 8 -3 22
-13 32 -23 18 -18 19 -38 19 -268 0 -137 -4 -261 -9 -274 -5 -14 -21 -27 -35
-31 -59 -15 -22 -26 84 -26 110 0 136 9 81 28 -38 13 -43 40 -39 187 l3 109
34 23 c48 33 95 30 132 -6 l29 -29 0 -132 0 -131 -30 -17 c-16 -9 -30 -20 -30
-24 0 -5 50 -8 110 -8 61 0 110 3 110 8 0 4 -15 14 -33 22 l-32 15 -6 145 c-3
80 -10 154 -16 165 -41 75 -162 93 -236 35 -14 -11 -28 -20 -33 -20 -4 0 -5
74 -2 165 3 91 3 165 -1 164 -3 0 -26 -11 -50 -25z"/>
<path d="M2925 990 c-3 -5 -33 -19 -65 -31 -33 -12 -60 -25 -60 -28 0 -4 13
-12 30 -18 l29 -11 3 -249 c2 -136 1 -261 -2 -278 -4 -22 -14 -34 -38 -44 -17
-8 -32 -18 -32 -23 0 -4 52 -8 115 -8 115 0 141 9 85 28 -18 7 -32 20 -35 35
-4 14 -5 162 -3 331 2 232 0 306 -9 306 -6 0 -14 -4 -18 -10z"/>
<path d="M2083 735 c-35 -35 -63 -65 -63 -68 0 -3 12 -7 28 -9 l27 -3 0 -145
c0 -160 9 -191 61 -210 42 -16 106 -11 142 10 48 29 40 39 -28 33 l-60 -6 -15
37 c-12 28 -15 67 -13 159 l3 122 75 0 c70 0 75 1 78 23 3 21 0 22 -72 22
l-76 0 0 50 c0 34 -4 50 -12 49 -7 -1 -41 -30 -75 -64z"/>
<path d="M1671 720 c-52 -13 -112 -60 -138 -109 -30 -58 -32 -154 -4 -210 84
-164 342 -155 407 14 24 65 16 161 -19 213 -48 74 -157 115 -246 92z m127 -54
c42 -38 55 -76 56 -161 0 -94 -20 -147 -68 -176 -114 -70 -221 86 -172 253 31
108 116 146 184 84z"/>
<path d="M2508 716 c-59 -21 -85 -42 -115 -93 -37 -63 -39 -166 -5 -230 55
-105 182 -138 285 -74 35 21 73 68 64 78 -3 2 -23 -8 -46 -22 -116 -77 -236
-11 -229 125 l3 55 138 3 c130 2 137 4 137 23 0 52 -63 121 -128 139 -47 13
-58 12 -104 -4z m93 -26 c30 0 66 -79 42 -93 -5 -3 -45 -8 -90 -12 -73 -6 -83
-5 -83 9 0 50 70 114 108 101 8 -3 18 -5 23 -5z"/>
</g>
</svg>
